#!OML:ASF I:\Actors\actors\Patient Classification 2\Patient 1\Session 1\actor1.ASF
:FULLY-SPECIFIED
:DEGREES
401
root -0.374348 18.5212 3.75521 5.30738 1.73194 -1.14864
lowerback 26.4504 -0.983191 2.73338
upperback 5.02064 -0.305452 1.94949
thorax -9.08757 -0.190141 0.698633
lowerneck -22.7664 -1.59786 -2.83011
upperneck 6.5188 -1.66744 2.80101
head 5.63093 -0.659665 1.16798
rclavicle 1.98785e-016 -3.97569e-016
rhumerus 26.1816 19.8461 -72.0759
rradius 37.8885
rwrist 27.5559
rhand -36.1155 -41.1283
rfingers 7.12502
rthumb -9.22126 -70.9067
lclavicle 1.98785e-016 -3.97569e-016
lhumerus 30.6829 -29.7141 69.4034
lradius 37.7834
lwrist 3.73268
lhand -20.0967 -37.8124
lfingers 7.12502
lthumb 6.24644 -7.92448
rfemur -13.4301 0.00436708 13.7422
rtibia 18.5387
rfoot -18.3051 -10.9728
rtoes -7.23119
lfemur -23.7575 1.06808 -13.4307
ltibia 33.2136
lfoot -15.7408 5.39939
ltoes -55.7657
402
root -0.373685 18.467 3.66879 5.72083 1.61217 -0.902465
lowerback 26.9153 -0.953401 2.37093
upperback 5.14525 -0.351356 1.94836
thorax -9.18237 -0.201914 0.92666
lowerneck -23.0223 -1.53775 -2.81221
upperneck 6.41197 -1.58852 2.83527
head 5.63292 -0.616198 1.18454
rclavicle -1.37161e-014 1.23246e-014
rhumerus 26.8294 17.5681 -75.4818
rradius 36.5622
rwrist 28.9048
rhand -36.5097 -41.5105
rfingers 7.12502
rthumb -9.60165 -71.2717
lclavicle -1.37161e-014 1.23246e-014
lhumerus 30.2641 -25.9482 74.2615
lradius 36.2463
lwrist 1.52602
lhand -25.4818 -42.5963
lfingers 7.12502
lthumb 1.04621 -12.6191
rfemur -15.4851 -0.35156 13.4484
rtibia 21.0289
rfoot -18.6429 -10.1616
rtoes -7.84415
lfemur -25.1513 1.39173 -13.7303
ltibia 34.3995
lfoot -15.8664 5.1438
ltoes -55.7879
403
root -0.372809 18.4155 3.59506 5.97253 1.45805 -0.573325
lowerback 27.3477 -0.942044 2.01786
upperback 5.30501 -0.436865 1.82572
thorax -9.21957 -0.23368 1.02664
lowerneck -23.3013 -1.4653 -2.76531
upperneck 6.34116 -1.52477 3.05026
head 5.65219 -0.563714 1.25344
rclavicle 1.19271e-014 3.97569e-016
rhumerus 26.752 15.5646 -79.1334
rradius 36.1373
rwrist 30.048
rhand -36.9952 -41.1557
rfingers 7.12502
rthumb -10.07 -70.8947
lclavicle 1.19271e-014 3.97569e-016
lhumerus 29.5404 -21.7867 79.665
lradius 35.3404
lwrist -1.17817
lhand -28.8009 -45.8624
lfingers 7.12502
lthumb -2.15941 -15.8936
rfemur -17.1693 -0.542969 13.0611
rtibia 23.2302
rfoot -18.9758 -9.49312
rtoes -8.36061
lfemur -26.2508 1.77252 -14.1372
ltibia 35.4785
lfoot -15.99 4.86189
ltoes -55.8924
404
root -0.369028 18.367 3.53478 6.07903 1.35556 -0.268448
lowerback 27.7096 -0.976332 1.89982
upperback 5.46633 -0.529587 1.6063
thorax -9.22015 -0.275969 0.884543
lowerneck -23.4924 -1.4293 -2.69592
upperneck 6.3349 -1.52287 3.28748
head 5.68105 -0.539137 1.31938
rclavicle 1.49089e-014 -1.35174e-014
rhumerus 25.9465 14.2561 -82.1477
rradius 36.76
rwrist 30.6598
rhand -37.4656 -40.7878
rfingers 7.12502
rthumb -10.5238 -70.5044
lclavicle 1.49089e-014 -1.35174e-014
lhumerus 28.6309 -18.4698 84.3094
lradius 35.4884
lwrist -2.32905
lhand -29.8011 -46.7941
lfingers 7.12502
lthumb -3.12539 -16.8372
rfemur -18.4594 -0.664458 12.6822
rtibia 25.0951
rfoot -19.311 -8.95786
rtoes -8.77346
lfemur -27.1063 2.1439 -14.5325
ltibia 36.467
lfoot -16.1385 4.51918
ltoes -55.9798
405
root -0.363135 18.3209 3.48743 6.03776 1.36342 -0.0270488
lowerback 28.0256 -1.05404 1.9553
upperback 5.60969 -0.629118 1.39085
thorax -9.21895 -0.325488 0.648864
lowerneck -23.6011 -1.41313 -2.60942
upperneck 6.48029 -1.54788 3.44203
head 5.74646 -0.534076 1.3531
rclavicle 8.94531e-015 -8.34896e-015
rhumerus 24.6715 14.343 -83.566
rradius 38.2342
rwrist 30.0914
rhand -37.8227 -40.7688
rfingers 7.12502
rthumb -10.8682 -70.4675
lclavicle 8.94531e-015 -8.34896e-015
lhumerus 27.3391 -16.2294 87.881
lradius 36.6547
lwrist -2.2804
lhand -29.0307 -46.1057
lfingers 7.12502
lthumb -2.38136 -16.1393
rfemur -19.3632 -0.804027 12.3674
rtibia 26.6374
rfoot -19.6342 -8.52923
rtoes -9.00096
lfemur -27.7261 2.34205 -14.8448
ltibia 37.3579
lfoot -16.3346 4.20832
ltoes -55.9739
406
root -0.356853 18.2784 3.44861 5.9069 1.37389 -0.139759
lowerback 28.3994 -1.15411 2.32341
upperback 5.65077 -0.647484 1.31424
thorax -9.36326 -0.344366 0.362643
lowerneck -23.5761 -1.37103 -2.46675
upperneck 6.747 -1.53515 3.39382
head 5.82724 -0.526844 1.31665
rclavicle -9.74045e-015 3.18055e-015
rhumerus 23.2197 16.1154 -83.1719
rradius 40.1168
rwrist 28.1125
rhand -38.2479 -41.4633
rfingers 7.12502
rthumb -11.2783 -71.1401
lclavicle -9.74045e-015 3.18055e-015
lhumerus 25.8219 -17.5239 87.5833
lradius 39.444
lwrist 1.76468
lhand -27.9907 -44.6428
lfingers 7.12502
lthumb -1.37697 -14.6675
rfemur -20.0407 -0.797569 12.4542
rtibia 27.9541
rfoot -19.9841 -8.26241
rtoes -9.42851
lfemur -28.1474 2.52852 -14.7462
ltibia 38.0658
lfoot -16.4775 3.96104
ltoes -55.9543
407
root -0.351078 18.2419 3.42447 5.59511 1.42566 -0.290513
lowerback 28.767 -1.2516 2.65712
upperback 5.66355 -0.658201 1.33555
thorax -9.53448 -0.358369 0.203715
lowerneck -23.4396 -1.32889 -2.39869
upperneck 7.13216 -1.4852 3.19863
head 5.92743 -0.516951 1.24874
rclavicle -1.19271e-015 -1.31198e-014
rhumerus 21.726 19.1032 -81.5554
rradius 42.342
rwrist 25.1588
rhand -38.7299 -42.8884
rfingers 7.12502
rthumb -11.7432 -72.5392
lclavicle -1.19271e-015 -1.31198e-014
lhumerus 23.9507 -20.1856 85.784
lradius 43.0653
lwrist 6.25283
lhand -27.4129 -43.9627
lfingers 7.12502
lthumb -0.818845 -13.9845
rfemur -20.3195 -0.785437 12.591
rtibia 29.0013
rfoot -20.3399 -8.03903
rtoes -9.95385
lfemur -28.2738 2.66848 -14.5984
ltibia 38.6956
lfoot -16.6823 3.74568
ltoes -55.9612
408
root -0.346767 18.2142 3.42965 4.85253 1.79618 0.603463
lowerback 29.0062 -1.30917 1.88135
upperback 5.84232 -0.963322 1.23715
thorax -9.44499 -0.47865 0.65152
lowerneck -23.2945 -1.28336 -2.46006
upperneck 7.69393 -1.39344 2.99441
head 6.08353 -0.491527 1.20357
rclavicle -3.37934e-015 7.95139e-015
rhumerus 19.973 22.5151 -79.6166
rradius 45.2669
rwrist 21.7966
rhand -39.1316 -44.0971
rfingers 7.12502
rthumb -12.1306 -73.7254
lclavicle -3.37934e-015 7.95139e-015
lhumerus 21.7489 -22.789 83.9712
lradius 47.0211
lwrist 9.34947
lhand -27.5148 -44.296
lfingers 7.12502
lthumb -0.917294 -14.3182
rfemur -19.7753 -1.37111 11.5793
rtibia 29.8147
rfoot -20.6277 -7.54051
rtoes -10.4354
lfemur -27.7031 2.54787 -15.6267
ltibia 39.143
lfoot -16.9483 3.41442
ltoes -56.1094
409
root -0.341869 18.1872 3.42816 4.43745 1.56192 0.38095
lowerback 29.1651 -1.27493 2.21406
upperback 5.78773 -0.816351 1.23756
thorax -9.58928 -0.41991 0.410758
lowerneck -23.572 -1.34087 -2.46613
upperneck 8.67576 -1.47068 2.91195
head 6.44778 -0.531307 1.16984
rclavicle -6.16232e-015 -2.78299e-015
rhumerus 17.5312 25.2288 -78.4819
rradius 48.85
rwrist 18.774
rhand -39.4413 -44.7002
rfingers 7.12502
rthumb -12.4291 -74.3107
lclavicle -6.16232e-015 -2.78299e-015
lhumerus 19.2763 -25.7643 81.9917
lradius 51.2824
lwrist 11.8276
lhand -28.0964 -45.2107
lfingers 7.12502
lthumb -1.47905 -15.2361
rfemur -19.6934 -1.02276 11.7964
rtibia 30.3818
rfoot -20.8997 -7.49629
rtoes -11.0941
lfemur -27.4176 2.93378 -15.394
ltibia 39.4509
lfoot -17.1315 3.24667
ltoes -56.2484
410
root -0.339858 18.1699 3.45566 3.91024 1.72375 0.30369
lowerback 28.8033 -1.36348 2.33532
upperback 5.92459 -0.900606 1.31067
thorax -9.2553 -0.459716 0.444441
lowerneck -23.6689 -1.32944 -2.36722
upperneck 9.40006 -1.4669 2.70689
head 6.69775 -0.542199 1.08818
rclavicle 1.96797e-014 -1.98785e-015
rhumerus 14.8823 27.4401 -78.0098
rradius 52.7703
rwrist 16.4651
rhand -39.7112 -45.3531
rfingers 7.12502
rthumb -12.6894 -74.9476
lclavicle 1.96797e-014 -1.98785e-015
lhumerus 16.5791 -28.2685 80.364
lradius 55.9563
lwrist 13.7032
lhand -28.7615 -46.2343
lfingers 7.12502
lthumb -2.12134 -16.2651
rfemur -19.1464 -1.04028 11.8839
rtibia 30.7256
rfoot -21.1797 -7.48464
rtoes -11.9948
lfemur -26.8601 3.12607 -15.3195
ltibia 39.5881
lfoot -17.2546 2.91596
ltoes -56.3755
411
root -0.337803 18.1665 3.52089 3.15525 2.4654 0.747414
lowerback 28.3564 -1.61052 2.31836
upperback 6.03424 -1.24979 1.17755
thorax -8.91562 -0.620898 0.416894
lowerneck -23.9564 -1.41781 -2.24197
upperneck 10.3598 -1.61379 2.56355
head 7.06115 -0.616705 1.00336
rclavicle -1.39149e-015 1.15295e-014
rhumerus 11.4706 28.8169 -78.4804
rradius 56.8705
rwrist 15.0292
rhand -39.9019 -46.2968
rfingers 7.12502
rthumb -12.8732 -75.8797
lclavicle -1.39149e-015 1.15295e-014
lhumerus 13.0449 -30.5277 79.4593
lradius 61.2898
lwrist 14.936
lhand -29.2622 -46.8521
lfingers 7.12502
lthumb -2.60493 -16.8883
rfemur -17.8779 -1.84764 11.393
rtibia 30.7896
rfoot -21.4281 -7.1942
rtoes -12.6996
lfemur -25.8813 2.79806 -15.828
ltibia 39.6178
lfoot -17.4515 2.53826
ltoes -56.496
412
root -0.336886 18.1638 3.57215 2.55767 2.59239 0.663054
lowerback 27.9511 -1.65663 2.55083
upperback 5.99819 -1.26148 1.13627
thorax -8.76074 -0.631819 0.23254
lowerneck -24.1131 -1.5257 -2.17439
upperneck 11.3034 -1.79335 2.55212
head 7.40405 -0.696476 0.966319
rclavicle 1.13307e-014 -5.96354e-015
rhumerus 7.6894 29.7787 -79.4808
rradius 61.0664
rwrist 14.1642
rhand -39.9886 -47.3364
rfingers 7.12502
rthumb -12.9568 -76.9141
lclavicle 1.13307e-014 -5.96354e-015
lhumerus 9.13014 -32.3322 79.135
lradius 66.6486
lwrist 15.7418
lhand -29.4483 -46.8035
lfingers 7.12502
lthumb -2.78465 -16.842
rfemur -16.9169 -1.85502 11.4797
rtibia 30.6331
rfoot -21.6656 -7.09921
rtoes -12.6202
lfemur -25.0034 2.63624 -15.7049
ltibia 39.5191
lfoot -17.6616 2.53832
ltoes -56.5217
